<?xml version="1.0" ?><!DOCTYPE svg  PUBLIC '-//W3C//DTD SVG 1.1//EN'  'http://www.w3.org/Graphics/SVG/1.1/DTD/svg11.dtd'><svg height="512px" style="enable-background:new 0 0 512 512;" version="1.1" viewBox="0 0 512 512" width="512px" xml:space="preserve" xmlns="http://www.w3.org/2000/svg" xmlns:xlink="http://www.w3.org/1999/xlink"><g id="social__x2C_media__x2C__vintage__x2C___linkedin__x2C_"><g><path d="M256.098,495.998c126.471,0,230.069-97.984,239.197-222.148    H16.705C25.83,398.014,129.433,495.998,256.098,495.998L256.098,495.998z M495.295,238.147    c-9.128-124.26-112.727-222.145-239.197-222.145c-126.665,0-230.268,97.884-239.393,222.145H495.295L495.295,238.147z" style="fill-rule:evenodd;clip-rule:evenodd;fill:#1F7189;"/><path d="M256.098,431.105c96.383,0,175.008-78.729,175.008-175.208    c0-96.279-78.625-175.008-175.008-175.008c-96.478,0-175.006,78.729-175.006,175.008    C81.092,352.377,159.62,431.105,256.098,431.105L256.098,431.105z" style="fill-rule:evenodd;clip-rule:evenodd;fill:#E9D9A8;"/><path d="M24.828,238.147h462.541    c0.401,5.917,0.505,11.934,0.505,17.751c0,6.018-0.104,12.036-0.505,17.952H24.828c-0.404-5.916-0.705-11.934-0.705-17.952    C24.123,250.081,24.424,244.064,24.828,238.147L24.828,238.147z" style="fill-rule:evenodd;clip-rule:evenodd;fill:#E9D9A8;"/><path d="M256.098,412.553c86.253,0,156.454-70.402,156.454-156.655    c0-86.249-70.201-156.454-156.454-156.454c-86.25,0-156.656,70.205-156.656,156.454    C99.441,342.15,169.848,412.553,256.098,412.553L256.098,412.553z" style="fill-rule:evenodd;clip-rule:evenodd;fill:#1F7189;"/><polygon points="186.097,257.803 186.097,325.1 220.096,325.1     220.096,252.288 220.096,232.03 186.097,232.03   " style="fill-rule:evenodd;clip-rule:evenodd;fill:#E9D9A8;"/><path d="M292.105,232.431c-13.841,0-23.267,6.017-27.178,11.734h-1.21    V232.03h-25.068v18.955V325.1h28.282v-45.131c0-12.135,1.099-23.869,15.941-23.869c14.947,0,14.844,13.837,14.844,24.673V325.1    h28.187v-50.145c0-4.713,0.201-9.529-0.304-13.641C323.492,243.764,315.87,232.431,292.105,232.431L292.105,232.431z" style="fill-rule:evenodd;clip-rule:evenodd;fill:#E9D9A8;"/><path d="M203.946,186.897c-8.925,0-16.146,7.322-16.146,16.248    s7.222,16.147,16.146,16.147c9.028,0,16.249-7.221,16.249-16.147S212.975,186.897,203.946,186.897L203.946,186.897z" style="fill-rule:evenodd;clip-rule:evenodd;fill:#E9D9A8;"/></g></g><g id="Layer_1"/></svg>