<?xml version="1.0" ?><!DOCTYPE svg  PUBLIC '-//W3C//DTD SVG 1.1//EN'  'http://www.w3.org/Graphics/SVG/1.1/DTD/svg11.dtd'><svg height="512px" style="enable-background:new 0 0 512 512;" version="1.1" viewBox="0 0 512 512" width="512px" xml:space="preserve" xmlns="http://www.w3.org/2000/svg" xmlns:xlink="http://www.w3.org/1999/xlink"><g id="social__x2C_media__x2C__vintage__x2C___flicker__x2C_"><g><path d="M256,495.946c126.466,0,230.168-97.885,239.296-222.145    H16.704C25.729,398.062,129.432,495.946,256,495.946L256,495.946z M495.296,238.198C486.168,113.938,382.466,16.054,256,16.054    c-126.568,0-230.271,97.884-239.296,222.145H495.296L495.296,238.198z" style="fill-rule:evenodd;clip-rule:evenodd;fill:#C95B5E;"/><path d="M256,431.059c96.481,0,175.01-78.729,175.01-175.108    c0-96.28-78.528-175.01-175.01-175.01c-96.381,0-175.009,78.729-175.009,175.01C80.991,352.33,159.619,431.059,256,431.059    L256,431.059z" style="fill-rule:evenodd;clip-rule:evenodd;fill:#E9D9A8;"/><path d="M24.827,238.198h462.446    c0.401,5.818,0.602,11.835,0.602,17.752c0,6.018-0.2,12.032-0.602,17.852H24.827c-0.501-5.819-0.701-11.834-0.701-17.852    C24.126,250.033,24.326,244.017,24.827,238.198L24.827,238.198z" style="fill-rule:evenodd;clip-rule:evenodd;fill:#E9D9A8;"/><path d="M256,412.608c86.251,0,156.553-70.409,156.553-156.658    c0-86.25-70.302-156.556-156.553-156.556c-86.25,0-156.655,70.306-156.655,156.556C99.345,342.199,169.75,412.608,256,412.608    L256,412.608z" style="fill-rule:evenodd;clip-rule:evenodd;fill:#C95B5E;"/><path d="M213.178,222.353c-17.352,0-31.594,12.638-33.799,29.086    c-0.304,1.503-0.4,3.107-0.4,4.612c0,18.552,15.244,33.596,34.199,33.596c18.851,0,34.095-15.044,34.095-33.596    c0-5.115-1.002-9.828-3.006-14.042C238.749,230.376,226.915,222.353,213.178,222.353L213.178,222.353z" style="fill-rule:evenodd;clip-rule:evenodd;fill:#E9D9A8;"/><path d="M298.823,222.353c-13.841,0-25.775,8.224-31.189,19.858    c-1.807,4.313-3.01,8.927-3.01,13.84c0,18.552,15.244,33.596,34.199,33.596c18.858,0,34.103-15.044,34.103-33.596    c0-0.902,0-1.806-0.104-2.709C331.52,235.892,316.776,222.353,298.823,222.353L298.823,222.353z" style="fill-rule:evenodd;clip-rule:evenodd;fill:#E9D9A8;"/></g></g><g id="Layer_1"/></svg>